<?xml version="1.0" standalone="no"?>
<!DOCTYPE svg PUBLIC "-//W3C//DTD SVG 20010904//EN"
 "http://www.w3.org/TR/2001/REC-SVG-20010904/DTD/svg10.dtd">
<svg version="1.0" xmlns="http://www.w3.org/2000/svg"
 width="768.000000pt" height="768.000000pt" viewBox="0 0 768.000000 768.000000"
 preserveAspectRatio="xMidYMid meet">
<metadata>
Created by potrace 1.11, written by Peter Selinger 2001-2013
</metadata>
<g transform="translate(0.000000,768.000000) scale(0.100000,-0.100000)"
fill="#000000" stroke="none">
<path d="M3735 6423 c-364 -17 -567 -37 -845 -84 -1102 -184 -2043 -707 -2522
-1400 -322 -466 -433 -976 -322 -1476 139 -625 579 -1165 1289 -1581 685 -401
1584 -625 2505 -625 1206 0 2325 373 3060 1018 433 381 697 839 766 1333 27
191 11 470 -36 654 -141 550 -505 1024 -1085 1413 -588 394 -1380 653 -2215
725 -138 11 -496 31 -520 28 -8 -1 -42 -3 -75 -5z m345 -83 c468 -23 843 -81
1225 -189 569 -161 1032 -391 1449 -718 110 -86 364 -347 447 -458 74 -99 119
-166 119 -179 0 -3 -28 -6 -62 -6 l-63 1 -55 81 c-199 294 -493 564 -860 790
-736 453 -1760 689 -2735 628 -793 -49 -1494 -249 -2084 -594 -384 -225 -712
-521 -925 -834 l-50 -72 -64 0 -64 0 23 38 c58 97 206 279 324 398 262 262
561 469 949 654 409 196 876 334 1376 409 142 21 472 50 625 54 50 2 119 4
155 5 36 1 157 -3 270 -8z m524 -357 l1 -113 -332 0 -333 0 0 115 0 115 331
-2 331 -3 2 -112z m-804 -3 c0 -83 -1 -88 -20 -83 -17 5 -19 14 -19 86 1 90 3
99 24 90 12 -4 15 -25 15 -93z m-621 29 c-1 -48 -6 -66 -24 -85 -20 -21 -55
-33 -55 -19 0 18 63 165 71 165 5 0 8 -27 8 -61z m67 -16 c16 -43 31 -81 32
-85 2 -4 -8 -8 -22 -8 -17 0 -26 6 -26 15 0 9 -6 18 -13 21 -15 5 -23 134 -8
134 4 0 21 -35 37 -77z m152 12 c-1 -44 -6 -65 -14 -65 -7 0 -16 -9 -19 -20
-4 -13 -15 -20 -31 -20 l-24 0 16 38 c9 20 23 55 31 76 29 80 44 76 41 -9z
m48 30 c8 -20 23 -58 34 -85 l20 -50 -24 0 c-16 0 -27 7 -31 20 -3 11 -12 20
-19 20 -8 0 -13 21 -14 65 -2 73 11 85 34 30z m138 13 c3 -13 6 -51 6 -84 0
-48 -4 -63 -16 -68 -9 -4 -18 -5 -19 -4 -3 3 -8 122 -6 156 0 12 7 22 15 22 7
0 16 -10 20 -22z m113 -63 c2 -75 -4 -94 -29 -95 -5 0 -8 20 -8 45 0 43 -1 45
-30 45 -20 0 -30 5 -30 15 0 10 10 15 31 15 20 0 29 4 26 13 -2 6 -15 12 -28
12 -15 0 -25 7 -27 18 -3 16 3 18 45 15 l48 -3 2 -80z m213 40 l0 -45 -45 0
c-51 0 -66 26 -17 32 15 2 27 8 27 13 0 6 -12 11 -27 13 -49 6 -34 32 17 32
l45 0 0 -45z m-1385 -364 c131 -35 182 -59 204 -97 22 -37 28 -39 66 -22 50
23 47 -1 -25 -212 -75 -220 -75 -220 -61 -220 6 0 46 71 90 159 44 87 86 161
93 164 41 15 108 -55 108 -111 0 -22 -26 -101 -65 -196 -36 -88 -65 -162 -65
-164 0 -2 7 2 16 9 26 21 88 118 129 199 20 41 39 77 41 79 2 3 15 -6 29 -19
19 -18 25 -33 25 -68 0 -38 2 -43 18 -37 40 17 52 15 103 -18 170 -110 292
-347 235 -455 -8 -15 -67 -79 -130 -142 l-116 -115 -26 26 -25 26 30 13 c17 7
31 16 31 21 0 11 -5 11 -52 0 -27 -6 -40 -5 -48 4 -7 9 8 24 62 60 40 27 67
50 60 53 -7 2 -30 -7 -50 -20 -78 -52 -101 -60 -123 -45 -19 14 -16 18 71 83
49 38 90 72 90 77 0 17 -25 3 -105 -58 -83 -64 -142 -93 -75 -36 44 37 32 53
-13 18 -30 -22 -37 -24 -52 -13 -17 12 -13 17 43 54 56 39 82 62 67 62 -3 0
-39 -18 -79 -40 -65 -36 -107 -44 -106 -21 1 3 48 42 105 85 90 68 120 96 101
96 -3 0 -53 -34 -112 -75 -83 -58 -110 -72 -120 -64 -8 6 -24 9 -36 6 -14 -4
28 44 110 124 72 72 132 135 132 140 0 22 -25 2 -112 -87 -99 -102 -140 -129
-210 -140 -42 -7 -43 -7 -25 13 23 27 22 31 -9 25 l-26 -5 25 40 c56 89 188
335 183 341 -8 8 -21 -10 -122 -180 -49 -81 -93 -148 -97 -148 -4 0 -3 9 3 19
12 24 13 41 1 41 -5 0 -14 -13 -21 -30 -12 -29 -30 -41 -30 -20 0 6 12 33 26
61 41 82 22 79 -30 -4 -27 -42 -50 -77 -52 -77 -2 0 8 24 21 53 26 55 33 89
15 71 -11 -11 -23 -31 -100 -172 -41 -75 -70 -108 -57 -64 4 13 79 222 90 252
1 3 -2 7 -7 10 -5 3 -21 -24 -36 -60 -62 -149 -58 -146 -52 -42 8 146 -17 114
-64 -83 -9 -38 -29 -98 -45 -132 -15 -35 -25 -63 -21 -63 4 0 41 19 82 42 68
37 83 42 160 46 94 4 193 -14 261 -48 123 -63 334 -241 412 -348 49 -66 111
-194 137 -280 36 -120 13 -108 -74 38 -71 120 -102 157 -161 194 -30 20 -55
40 -55 45 0 10 -110 92 -171 129 -19 12 -61 28 -93 36 -51 14 -66 14 -126 1
-128 -27 -249 -88 -345 -173 -63 -56 -33 -46 76 26 89 58 159 93 159 79 0 -2
-16 -35 -36 -73 l-36 -69 5 -105 c3 -58 13 -157 22 -220 9 -63 17 -160 18
-215 1 -113 -14 -159 -92 -273 -47 -70 -71 -85 -71 -44 0 38 -24 68 -73 94
-36 19 -60 23 -160 25 -144 2 -143 1 -308 166 -65 67 -131 123 -152 132 -42
17 -83 20 -92 5 -9 -14 -51 -12 -63 3 -12 14 -21 147 -9 147 4 0 7 -4 7 -10 0
-5 5 -10 10 -10 6 0 4 12 -4 28 -20 38 -8 56 27 43 15 -6 27 -13 27 -17 0 -3
-12 -28 -27 -55 -21 -37 -25 -51 -16 -60 9 -9 31 4 95 57 111 91 301 277 348
340 26 34 68 70 130 110 125 80 170 115 189 143 l16 24 -40 -26 c-50 -32 -155
-79 -155 -69 0 14 109 115 137 128 16 7 22 13 16 13 -21 2 -15 74 17 201 33
129 34 140 22 140 -5 0 -26 -60 -46 -132 -21 -73 -40 -135 -43 -138 -5 -5 -3
9 13 120 4 26 2 40 -5 40 -6 0 -11 -6 -11 -12 0 -40 -66 -244 -86 -267 l-24
-26 24 60 c44 112 94 349 76 360 -8 5 -18 -33 -40 -148 -16 -80 -23 -66 -10
18 9 59 8 88 -4 74 -1 -2 -18 -65 -36 -139 -30 -124 -87 -296 -96 -288 -1 2 8
62 22 133 25 137 45 418 27 400 -6 -5 -21 -103 -34 -217 -13 -114 -25 -205
-27 -203 -2 2 -4 68 -3 147 1 123 -1 141 -13 125 -12 -15 -23 -136 -30 -339
-1 -21 -6 -41 -10 -45 -5 -4 -6 63 -2 149 4 102 3 159 -4 163 -16 10 -18 -8
-25 -180 -4 -88 -8 -162 -11 -164 -2 -2 -4 38 -4 89 0 51 -3 90 -7 87 -6 -6
-42 -266 -43 -309 0 -10 -7 -18 -15 -18 -12 0 -15 16 -15 84 0 136 -35 305
-82 399 -32 64 -35 41 -7 -45 51 -156 75 -362 44 -388 -19 -16 -25 1 -55 152
-12 65 -26 115 -31 113 -8 -6 -4 -44 12 -129 12 -63 3 -72 -12 -12 -11 45 -29
71 -29 43 0 -8 12 -65 26 -128 14 -63 28 -124 31 -136 3 -13 1 -23 -6 -23 -6
0 -13 12 -17 28 -14 65 -41 136 -54 140 -7 3 -10 0 -6 -6 10 -16 57 -244 54
-261 -2 -9 -19 19 -37 62 -19 42 -41 77 -48 77 -18 0 -17 -7 11 -96 l25 -76
-28 26 c-32 31 -48 32 -76 6 -20 -19 -21 -19 -96 33 -257 177 -289 201 -280
210 6 6 21 5 41 -3 17 -7 33 -11 35 -8 2 2 -14 32 -35 66 -22 35 -40 67 -40
72 0 21 24 61 36 58 6 -2 55 -54 108 -115 85 -99 116 -128 116 -107 0 3 -38
51 -84 107 -46 56 -91 116 -100 134 -22 45 -20 143 3 143 4 0 50 -79 102 -175
89 -165 119 -204 119 -152 0 20 -125 395 -214 642 -20 55 -36 119 -36 142 0
37 5 46 48 82 26 23 53 41 60 41 14 0 37 -49 71 -152 21 -64 36 -87 48 -75 3
3 0 67 -7 142 -6 75 -10 139 -8 141 3 2 30 -87 62 -199 32 -111 62 -206 66
-210 25 -28 14 25 -70 330 -26 93 -26 144 0 168 12 11 24 15 28 9 9 -9 66
-164 97 -261 15 -49 30 -71 41 -61 2 3 -18 72 -45 154 -27 82 -44 141 -37 131
43 -70 51 -62 48 46 -1 45 1 87 6 94 10 16 132 73 155 73 13 0 27 -20 49 -67
53 -118 68 -117 68 2 0 93 12 109 97 128 38 9 77 18 88 21 11 3 85 3 165 2
108 -3 166 -9 225 -25z m-1266 -616 c11 -38 19 -71 17 -72 -3 -4 -56 140 -56
153 0 23 21 -20 39 -81z m1366 -295 c-28 -12 -37 -12 -30 0 3 6 16 10 28 9 21
0 21 -1 2 -9z m2675 -113 c36 -19 85 -43 110 -53 40 -15 160 -117 160 -136 0
-11 -111 40 -148 69 -18 14 -35 23 -38 20 -9 -8 46 -65 84 -88 111 -65 221
-145 238 -173 53 -90 425 -429 447 -407 8 8 4 26 -16 66 l-27 55 27 11 c37 14
48 -2 29 -40 -9 -17 -12 -31 -6 -31 5 0 10 5 10 10 0 6 5 10 11 10 18 0 6
-127 -14 -147 -14 -15 -21 -15 -57 -3 -71 24 -103 6 -249 -140 -71 -71 -143
-136 -161 -145 -23 -12 -64 -17 -148 -19 -98 -2 -124 -6 -159 -24 -48 -25 -63
-47 -63 -91 0 -17 -4 -31 -9 -31 -34 0 -141 175 -161 264 -12 53 -3 164 31
403 24 167 18 226 -31 305 -17 28 -29 52 -27 54 11 11 76 -21 162 -80 54 -37
100 -64 103 -61 13 12 -98 97 -183 140 -101 51 -196 78 -268 78 -71 -1 -195
-65 -283 -146 -38 -35 -83 -71 -100 -80 -43 -22 -68 -54 -149 -190 -39 -64
-76 -116 -82 -117 -18 0 -17 5 16 101 56 167 134 284 272 410 212 194 333 251
519 245 88 -2 100 -5 160 -39z m-2450 -299 c39 -43 70 -83 70 -89 0 -6 -43 29
-95 77 -52 48 -95 90 -95 94 0 4 11 5 25 2 16 -3 52 -35 95 -84z m2149 66
c-44 -48 -179 -166 -179 -158 0 5 31 45 69 89 46 53 79 82 98 86 15 4 30 7 32
8 3 0 -6 -11 -20 -25z m-1601 -61 c3 -21 -41 -79 -64 -85 -7 -2 -27 20 -47 49
-40 60 -38 62 53 60 48 -2 55 -5 58 -24z m546 -34 c83 -21 132 -91 121 -173
-17 -131 -15 -126 -52 -141 -33 -14 -35 -17 -29 -49 9 -45 -9 -58 -81 -57 -51
1 -72 3 -132 9 -10 2 -11 11 -7 37 6 32 5 35 -26 43 -31 8 -33 11 -34 58 -1
27 -9 66 -18 86 -20 47 -20 61 0 105 36 75 147 110 258 82z m-2683 -50 c108
-69 104 -69 -58 -4 -44 17 -53 29 -30 38 20 9 22 8 88 -34z m3588 -51 c-42
-77 -41 -83 14 -95 15 -3 27 -8 27 -12 0 -5 -164 -125 -199 -146 -15 -8 -7 4
65 98 l36 47 -40 0 -39 0 85 90 c46 50 86 90 88 90 1 0 -15 -32 -37 -72z
m-1465 -4 c11 -4 16 -19 16 -47 0 -46 -6 -44 -31 13 -18 40 -15 46 15 34z
m266 -408 l0 -45 -47 -3 -48 -3 -3 -207 -2 -208 -80 0 -80 0 0 210 0 210 -50
0 -50 0 0 38 c0 21 3 42 7 45 3 4 84 7 180 7 l173 0 0 -44z m140 -136 l0 -180
30 0 30 0 0 180 0 180 100 0 100 0 0 -255 0 -255 -100 0 -100 0 0 56 c0 54 0
55 -27 52 -26 -3 -28 -7 -31 -55 l-3 -53 -50 0 -49 0 0 255 0 255 50 0 50 0 0
-180z m641 151 c17 -21 19 -38 17 -140 l-3 -116 -125 -2 -125 -1 -3 -77 -3
-76 28 3 c27 3 28 6 31 61 l3 57 99 0 100 0 0 -74 c0 -113 -12 -120 -198 -114
-172 4 -162 -11 -162 248 0 201 1 207 23 227 33 31 42 32 175 30 117 -2 125
-3 143 -26z m-2766 -101 c5 -20 -5 -39 -52 -97 -32 -39 -80 -100 -108 -135
-77 -98 -68 -49 21 113 89 161 122 189 139 119z m89 19 c41 -24 45 -29 16 -22
-31 8 -24 -2 23 -32 23 -16 54 -40 68 -54 97 -97 182 -161 215 -161 52 0 73
-70 32 -106 -13 -11 -41 -32 -64 -47 -52 -35 -76 -68 -99 -137 l-19 -55 -7 50
c-9 69 -65 201 -96 225 -55 43 -184 62 -275 41 -34 -8 -37 -7 -28 8 5 9 38 49
74 88 66 71 116 157 116 201 0 27 0 27 44 1z m4308 -94 c9 -17 46 -64 83 -105
37 -41 71 -82 76 -91 8 -15 4 -16 -29 -8 -111 26 -230 0 -285 -60 -39 -43 -92
-187 -84 -228 6 -35 -10 -17 -23 25 -20 62 -57 109 -120 152 -60 41 -61 42
-58 83 3 39 5 42 51 58 49 18 88 47 187 139 30 29 74 65 98 81 48 34 53 43 17
29 -37 -14 -30 -3 13 19 l37 19 11 -41 c6 -23 18 -56 26 -72z m92 66 c54 -86
137 -252 134 -268 -2 -11 -40 30 -110 120 -64 81 -106 143 -103 152 3 8 7 21
9 29 8 24 46 6 70 -33z m-3814 -268 c46 -31 51 -52 20 -83 -15 -15 -33 -20
-74 -20 -31 0 -58 5 -62 11 -5 9 7 10 44 5 28 -4 53 -2 56 3 7 11 -17 21 -54
21 -62 0 -106 40 -77 69 18 18 119 13 147 -6z m3218 -3 c6 -31 -24 -54 -79
-60 -29 -3 -54 -11 -57 -18 -3 -9 10 -11 55 -6 42 4 54 3 43 -5 -27 -19 -114
-13 -138 9 -26 25 -27 29 -6 58 23 33 50 41 119 39 44 -1 61 -6 63 -17z
m-3845 -46 c63 -33 97 -67 127 -128 38 -77 49 -160 27 -202 -8 -16 -69 -87
-136 -158 -103 -110 -122 -136 -136 -182 -9 -30 -19 -54 -24 -54 -13 0 -78 75
-116 134 -18 29 -41 79 -51 112 -15 52 -16 73 -5 190 6 72 18 152 27 178 17
50 61 92 116 113 49 17 134 16 171 -3z m4488 1 c24 -9 58 -30 76 -47 44 -43
65 -141 67 -307 1 -123 0 -128 -31 -191 -30 -61 -125 -180 -143 -180 -5 0 -16
25 -25 56 -14 49 -31 71 -135 180 -65 69 -126 141 -135 161 -24 50 -15 108 29
197 34 70 59 95 131 135 29 15 116 13 166 -4z m-3996 -91 c45 -49 25 -175 -40
-251 -30 -35 -154 -133 -168 -133 -3 0 -3 10 0 23 4 12 -13 -4 -39 -38 -52
-70 -142 -133 -235 -164 -72 -24 -93 -26 -93 -8 0 20 152 189 232 258 92 79
91 78 129 174 35 92 58 120 114 146 54 25 72 24 100 -7z m3442 1 c60 -30 72
-47 103 -140 22 -67 29 -75 175 -220 212 -210 232 -244 124 -215 -107 29 -221
111 -292 210 -17 24 -18 24 -13 3 5 -29 2 -29 -42 4 -139 102 -175 153 -188
263 -6 51 -4 59 21 88 32 39 46 39 112 7z m-2817 -67 l0 -58 -60 0 -60 0 0
-260 0 -260 -105 0 -105 0 0 260 0 260 -60 0 -60 0 0 58 0 57 225 0 225 0 0
-57z m180 -239 l0 -289 40 0 40 0 0 290 0 290 125 0 125 0 0 -315 0 -315 -195
0 c-194 0 -238 6 -249 36 -4 10 -9 537 -6 594 0 3 27 3 60 2 l60 -4 0 -289z
m807 276 c23 -15 23 -17 23 -198 l0 -182 -122 2 -123 2 -3 61 -3 61 -37 -3
-37 -3 -3 -82 -3 -83 166 0 165 0 0 -40 0 -40 -165 0 -165 0 0 -55 0 -55 -60
0 -60 0 0 293 c0 225 3 297 13 311 19 26 61 31 234 29 121 -2 161 -6 180 -18z
m975 11 c14 -3 36 -15 47 -27 19 -21 21 -35 21 -171 l0 -148 -165 0 -165 0 0
-96 0 -95 36 3 37 3 1 70 1 70 125 0 125 0 3 -87 c3 -79 1 -88 -22 -115 l-24
-28 -148 -3 c-172 -4 -208 1 -240 33 l-24 24 0 251 c0 152 4 259 10 270 13 24
45 42 89 49 40 7 255 5 293 -3z m521 -8 c15 -6 32 -19 37 -29 6 -10 10 -128
10 -271 0 -284 -1 -289 -68 -308 -20 -5 -115 -10 -209 -10 l-173 0 0 315 0
314 158 3 c172 3 203 1 245 -14z m-963 -43 l0 -55 -62 0 -63 0 3 -260 3 -260
-106 0 -105 0 0 260 0 259 -62 3 -63 3 -3 53 -3 52 230 0 231 0 0 -55z m-3809
-415 c117 -172 327 -398 504 -541 580 -469 1361 -766 2275 -866 129 -14 244
-18 525 -17 374 0 500 9 800 55 1100 169 2008 665 2495 1362 l56 79 62 2 c34
0 62 -2 62 -5 0 -3 -21 -36 -46 -75 -371 -552 -1059 -1008 -1899 -1257 -645
-191 -1362 -256 -2085 -188 -917 87 -1738 394 -2350 880 -122 96 -348 322
-432 431 -63 82 -148 203 -148 211 0 2 30 3 66 3 l66 -2 49 -72z m2116 -236
l28 -21 3 -205 2 -205 -27 -19 c-22 -15 -51 -20 -125 -22 l-98 -4 0 -69 0 -69
-100 0 -100 0 0 321 0 320 194 -3 c180 -3 197 -5 223 -24z m213 -270 l0 -295
38 3 37 3 3 293 2 292 125 0 125 0 0 -321 0 -320 -205 3 c-197 3 -205 4 -227
26 -23 22 -23 26 -26 304 -2 155 -1 287 2 295 4 9 25 13 66 13 l60 0 0 -296z
m787 285 c15 -5 31 -16 35 -22 4 -7 8 -92 8 -189 l0 -178 -125 0 -125 0 0 60
0 60 -35 0 -35 0 0 -85 0 -85 160 0 160 0 0 -40 0 -41 -162 2 -161 1 -1 -54
-1 -53 -62 -3 -63 -3 0 299 c0 272 2 300 18 314 9 9 24 18 32 21 28 10 328 7
357 -4z m532 -13 c20 -18 21 -29 21 -198 l0 -178 -125 0 -125 0 0 60 0 60 -40
0 -40 0 0 -85 0 -85 166 0 165 0 -3 -37 -3 -38 -160 -2 -160 -1 -3 -57 -3 -56
-62 3 -62 3 -3 270 c-1 149 0 285 3 303 10 55 41 62 241 60 153 -3 174 -5 193
-22z m244 11 c97 -41 58 -127 -58 -127 -115 0 -155 85 -60 126 39 17 78 17
118 1z m516 2 c19 -7 36 -22 42 -36 5 -13 9 -152 9 -309 l0 -284 -125 0 -125
0 0 120 0 120 -40 0 -40 0 0 -120 0 -120 -65 0 -65 0 0 320 0 320 189 0 c113
0 201 -4 220 -11z m506 -3 c46 -20 56 -63 53 -218 l-3 -123 -127 -3 -128 -3 0
81 0 81 -37 -3 c-21 -2 -37 -6 -35 -10 1 -5 2 -48 2 -97 l0 -89 123 -4 c98 -3
128 -7 154 -23 40 -24 57 -63 50 -118 -10 -76 -61 -97 -242 -97 -184 0 -215
15 -215 99 l0 41 99 0 100 0 3 -42 c3 -42 4 -43 41 -46 l37 -3 0 70 0 69 -121
4 c-165 4 -159 -3 -159 217 0 185 3 196 61 217 50 18 300 18 344 0z m-965
-391 l0 -235 -115 0 -115 0 0 235 0 235 115 0 115 0 0 -235z m-1362 -368 c3
-16 1 -17 -16 -8 -16 9 -24 7 -36 -5 -20 -19 -20 -29 0 -48 19 -19 26 -20 43
-3 10 10 12 8 9 -8 -8 -48 -98 -20 -98 32 0 52 89 88 98 40z m57 -22 c0 -34 3
-41 24 -45 45 -9 36 -30 -13 -30 l-46 0 0 61 c0 52 2 60 18 57 13 -2 17 -13
17 -43z m155 30 c0 -10 -11 -16 -32 -16 -31 -2 -31 -2 -5 -6 34 -5 36 -33 2
-33 -33 0 -32 -18 2 -22 48 -6 39 -28 -11 -28 l-46 0 0 60 0 60 45 0 c33 0 45
-4 45 -15z m55 -25 l13 -35 11 28 c6 16 11 33 11 38 0 5 7 9 15 9 8 0 15 -6
15 -14 0 -28 -40 -106 -54 -106 -9 0 -23 23 -35 55 -25 67 -25 67 -4 63 9 -2
22 -19 28 -38z m173 28 c-3 -7 -18 -16 -34 -19 l-29 -7 28 -1 c35 -1 38 -31 2
-31 -33 0 -32 -18 2 -22 48 -6 39 -28 -11 -28 l-46 0 0 60 0 60 46 0 c32 0 44
-4 42 -12z m52 -33 c0 -41 2 -45 25 -45 14 0 25 -5 25 -12 0 -21 13 1 30 50
22 63 44 66 70 10 29 -65 23 -103 -10 -63 -7 8 -19 15 -27 15 -7 0 -16 -7 -19
-15 -5 -11 -22 -15 -65 -15 l-59 0 0 60 c0 47 3 60 15 60 11 0 15 -12 15 -45z
m247 18 l22 -28 1 28 c0 17 5 27 15 27 12 0 15 -13 15 -60 0 -72 -19 -80 -53
-22 l-22 37 -3 -37 c-2 -25 -8 -38 -18 -38 -11 0 -14 14 -14 60 0 50 3 60 17
60 10 0 27 -12 40 -27z m167 6 c14 -11 26 -28 26 -38 0 -30 -38 -61 -74 -61
l-34 0 -4 56 c-1 31 -1 58 1 60 12 11 61 2 85 -17z m248 4 c38 -34 11 -103
-40 -103 -54 0 -81 62 -45 102 20 22 61 23 85 1z m68 -3 c0 -27 36 -27 43 1
11 41 32 14 35 -44 3 -52 1 -57 -18 -57 -15 0 -20 6 -20 25 0 18 -5 25 -20 25
-15 0 -20 -7 -20 -25 0 -16 -6 -25 -15 -25 -12 0 -15 13 -15 60 0 47 3 60 15
60 8 0 15 -9 15 -20z m170 10 c0 -5 -4 -10 -10 -10 -5 0 -10 -18 -10 -40 0
-22 5 -40 10 -40 6 0 10 -4 10 -10 0 -5 -16 -10 -35 -10 -34 0 -46 12 -25 25
6 3 10 19 10 35 0 16 -4 32 -10 35 -21 13 -9 25 25 25 19 0 35 -4 35 -10z
m114 -6 c9 -8 16 -28 16 -44 0 -36 -24 -60 -60 -60 -31 0 -60 30 -60 62 0 46
72 75 104 42z m-539 -105 c-19 -35 -30 -32 -21 6 4 14 13 25 21 25 14 0 14 -4
0 -31z"/>
<path d="M3982 5988 c3 -81 4 -83 29 -86 17 -2 29 3 32 12 5 11 0 16 -14 16
-19 0 -20 5 -16 70 4 64 2 70 -15 70 -17 0 -19 -7 -16 -82z"/>
<path d="M4090 6000 c0 -52 -3 -70 -13 -70 -8 0 -14 -7 -14 -16 0 -11 9 -14
31 -12 l31 3 2 83 c2 76 1 82 -17 82 -18 0 -20 -7 -20 -70z"/>
<path d="M4200 5995 c0 -41 0 -78 -1 -82 0 -5 7 -9 15 -11 14 -3 16 10 16 82
0 70 -3 86 -15 86 -12 0 -15 -15 -15 -75z"/>
<path d="M4310 5985 c0 -69 3 -85 15 -85 18 0 17 -4 19 93 1 68 -1 77 -16 77
-16 0 -18 -10 -18 -85z"/>
<path d="M4410 5985 c0 -69 3 -85 15 -85 12 0 15 16 15 85 0 69 -3 85 -15 85
-12 0 -15 -16 -15 -85z"/>
<path d="M4491 6028 c-33 -44 -45 -112 -17 -89 12 10 18 7 31 -13 10 -14 26
-26 36 -26 25 0 24 7 -6 46 -28 37 -25 54 18 102 l20 22 -25 0 c-19 0 -35 -11
-57 -42z"/>
<path d="M4250 6009 c0 -17 9 -42 20 -56 l20 -26 0 27 c0 25 -25 86 -35 86 -3
0 -5 -14 -5 -31z"/>
<path d="M2636 5523 c-6 -27 -28 -238 -30 -278 -1 -11 4 -21 9 -23 9 -3 40
177 47 277 3 50 -17 69 -26 24z"/>
<path d="M2496 5308 c-3 -29 -8 -98 -11 -153 -4 -55 -8 -110 -11 -122 -3 -16
0 -23 11 -23 8 0 15 6 15 13 1 6 7 80 14 162 7 83 11 156 9 163 -10 26 -21 10
-27 -40z"/>
<path d="M2286 5263 c-9 -106 -8 -163 3 -163 5 0 12 30 15 68 4 37 9 91 11
120 4 40 2 52 -8 52 -10 0 -16 -22 -21 -77z"/>
<path d="M1570 5298 c0 -7 18 -76 41 -153 79 -271 124 -408 136 -412 14 -5 13
3 -44 197 -93 319 -110 374 -122 378 -6 2 -11 -2 -11 -10z"/>
<path d="M1935 5128 c15 -126 28 -204 37 -218 6 -10 7 14 3 70 -11 165 -17
200 -32 200 -11 0 -12 -11 -8 -52z"/>
<path d="M1373 5130 c13 -34 78 -247 127 -410 61 -208 73 -236 65 -162 -14
130 -145 538 -186 576 -8 8 -10 7 -6 -4z"/>
<path d="M1500 4985 c0 -8 68 -173 82 -199 6 -11 13 -15 19 -9 11 11 -71 205
-89 211 -7 2 -12 1 -12 -3z"/>
<path d="M1520 4851 c0 -5 25 -72 56 -148 31 -76 58 -144 61 -150 3 -7 9 -13
14 -13 17 0 9 25 -52 173 -53 127 -79 172 -79 138z"/>
<path d="M1817 4492 c-10 -15 2 -100 14 -108 11 -6 11 25 1 81 -5 25 -10 35
-15 27z"/>
<path d="M2249 4274 c-1 -10 0 -33 1 -51 2 -41 -9 -60 -77 -136 -31 -34 -64
-75 -74 -92 -23 -37 -24 -93 -3 -123 31 -45 163 -19 194 38 16 29 12 74 -10
121 -26 58 -25 92 5 164 27 67 33 97 13 77 -9 -9 -16 -8 -30 5 -17 15 -18 15
-19 -3z"/>
<path d="M2195 4258 c-26 -14 -54 -49 -55 -67 0 -8 18 5 41 28 43 46 47 56 14
39z"/>
<path d="M5473 4275 c-10 -16 -13 -17 -28 -5 -15 12 -16 11 -9 -16 4 -16 17
-55 30 -86 23 -55 23 -59 8 -100 -37 -99 -39 -115 -22 -151 10 -20 30 -41 51
-50 47 -23 119 -22 139 1 44 51 29 107 -58 203 -77 86 -98 122 -91 158 3 14 2
35 -2 46 -8 19 -8 19 -18 0z"/>
<path d="M5556 4228 c16 -18 32 -37 36 -42 5 -6 8 -2 8 7 0 20 -43 67 -61 67
-7 0 0 -15 17 -32z"/>
<path d="M5252 3664 c-11 -12 -9 -14 13 -14 18 0 24 -4 19 -12 -6 -10 -4 -10
7 0 16 14 83 17 74 2 -3 -5 -1 -10 4 -10 6 0 11 5 11 11 0 7 12 9 33 6 17 -3
26 -3 20 0 -7 2 -13 12 -13 20 0 13 -3 13 -15 3 -12 -10 -18 -10 -30 0 -10 9
-15 9 -15 1 0 -6 -9 -11 -20 -11 -11 0 -20 5 -20 12 0 9 -3 9 -12 0 -7 -7 -17
-8 -27 -3 -10 6 -21 4 -29 -5z"/>
<path d="M5454 3646 c0 -13 4 -22 8 -20 4 3 12 -4 18 -13 10 -17 10 -16 8 2
-2 11 2 19 8 18 6 -1 11 5 11 13 0 9 -6 13 -15 9 -8 -3 -20 -1 -27 5 -10 8
-13 5 -11 -14z"/>
<path d="M5305 3630 c3 -5 8 -10 11 -10 2 0 4 5 4 10 0 6 -5 10 -11 10 -5 0
-7 -4 -4 -10z"/>
<path d="M5390 3630 c0 -5 5 -10 11 -10 5 0 7 5 4 10 -3 6 -8 10 -11 10 -2 0
-4 -4 -4 -10z"/>
<path d="M5528 3623 c6 -3 10 -8 8 -12 -3 -4 4 -12 14 -19 16 -10 18 -9 14 3
-7 18 -4 18 31 5 23 -9 25 -13 15 -25 -11 -14 -10 -14 11 -7 13 5 29 7 35 5 6
-2 11 3 11 11 0 8 -4 13 -9 10 -5 -3 -16 0 -25 8 -9 7 -18 12 -20 11 -8 -7
-34 -2 -29 5 3 4 -12 8 -32 9 -20 0 -31 -2 -24 -4z"/>
<path d="M3756 4074 c-10 -26 -7 -33 18 -49 27 -18 76 -6 76 18 0 38 -81 65
-94 31z"/>
<path d="M3904 4069 c-20 -22 -11 -51 18 -57 26 -5 68 17 68 36 0 43 -54 57
-86 21z"/>
<path d="M3851 3979 c-14 -41 -15 -39 14 -39 20 0 25 5 25 24 0 13 -6 29 -14
35 -11 9 -16 5 -25 -20z"/>
<path d="M4199 3654 c-28 -34 26 -65 86 -50 29 7 38 31 19 51 -20 20 -88 20
-105 -1z"/>
<path d="M1656 3291 c5 -5 47 -34 94 -65 89 -59 107 -58 78 1 -10 21 -21 28
-43 29 -17 1 -52 11 -79 23 -52 23 -65 26 -50 12z"/>
<path d="M1523 3169 c-51 -15 -49 -29 4 -29 84 0 190 -37 241 -83 30 -28 28
-6 -3 32 -49 58 -174 99 -242 80z"/>
<path d="M1455 2971 c-39 -8 -35 -24 7 -33 25 -5 36 -3 46 9 24 33 13 38 -53
24z"/>
<path d="M6040 3280 c-30 -16 -64 -26 -75 -24 -25 6 -49 -19 -59 -59 -8 -35
-13 -36 99 37 104 68 100 65 94 70 -2 2 -29 -9 -59 -24z"/>
<path d="M6119 3166 c-60 -16 -132 -59 -153 -90 -24 -38 -21 -38 35 -1 58 40
107 55 199 64 55 5 62 8 45 17 -35 20 -78 23 -126 10z"/>
<path d="M6231 2957 c10 -22 16 -25 48 -20 20 3 38 8 40 10 10 8 -17 21 -57
28 l-42 7 11 -25z"/>
<path d="M1986 3078 c-18 -28 -17 -56 3 -88 16 -24 22 -6 19 56 l-3 59 -19
-27z"/>
<path d="M5730 3043 c0 -67 9 -79 28 -38 16 36 15 49 -8 76 l-19 24 -1 -62z"/>
<path d="M4552 3064 c-32 -22 -28 -51 9 -70 36 -18 83 -13 111 13 23 21 23 28
-2 53 -24 24 -86 27 -118 4z"/>
<path d="M5070 2788 c-54 -29 -26 -88 42 -88 22 0 48 5 59 10 22 12 25 52 5
69 -22 19 -78 23 -106 9z"/>
<path d="M2390 2238 c-56 -30 -22 -88 50 -88 63 0 103 48 65 80 -22 18 -87 22
-115 8z"/>
<path d="M3730 1795 c0 -8 4 -15 10 -15 5 0 7 7 4 15 -4 8 -8 15 -10 15 -2 0
-4 -7 -4 -15z"/>
<path d="M3980 1785 c0 -33 2 -35 21 -25 24 14 22 53 -3 58 -15 3 -18 -4 -18
-33z"/>
<path d="M4222 1818 c-28 -28 3 -83 33 -58 8 7 15 20 15 29 0 17 -18 41 -30
41 -3 0 -11 -5 -18 -12z"/>
<path d="M4574 1817 c-9 -25 0 -62 15 -62 22 0 38 32 25 52 -14 23 -33 28 -40
10z"/>
</g>
</svg>
